<?xml version="1.0" encoding="UTF-8" standalone="no"?>
<!-- Created with Inkscape (http://www.inkscape.org/) -->
<svg
   xmlns:dc="http://purl.org/dc/elements/1.1/"
   xmlns:cc="http://creativecommons.org/ns#"
   xmlns:rdf="http://www.w3.org/1999/02/22-rdf-syntax-ns#"
   xmlns:svg="http://www.w3.org/2000/svg"
   xmlns="http://www.w3.org/2000/svg"
   xmlns:sodipodi="http://sodipodi.sourceforge.net/DTD/sodipodi-0.dtd"
   xmlns:inkscape="http://www.inkscape.org/namespaces/inkscape"
   id="svg2"
   sodipodi:version="0.32"
   inkscape:version="0.46"
   width="650"
   height="300"
   version="1.0"
   sodipodi:docname="Electric_power_factor.svg"
   inkscape:output_extension="org.inkscape.output.svg.inkscape">
  <metadata
     id="metadata7">
    <rdf:RDF>
      <cc:Work
         rdf:about="">
        <dc:format>image/svg+xml</dc:format>
        <dc:type
           rdf:resource="http://purl.org/dc/dcmitype/StillImage" />
      </cc:Work>
    </rdf:RDF>
  </metadata>
  <defs
     id="defs5" />
  <sodipodi:namedview
     inkscape:window-height="881"
     inkscape:window-width="1440"
     inkscape:pageshadow="2"
     inkscape:pageopacity="0.0"
     guidetolerance="10.0"
     gridtolerance="10.0"
     objecttolerance="10.0"
     borderopacity="1.0"
     bordercolor="#666666"
     pagecolor="#ffffff"
     id="base"
     showgrid="false"
     inkscape:zoom="0.83821263"
     inkscape:cx="312.52225"
     inkscape:cy="72.628063"
     inkscape:window-x="-4"
     inkscape:window-y="-4"
     inkscape:current-layer="svg2"
     inkscape:showpageshadow="false" />
  <path
     style="opacity:1;fill:none;fill-opacity:1;stroke:#000000;stroke-width:1;stroke-linecap:round;stroke-linejoin:round;stroke-miterlimit:4;stroke-dasharray:none;stroke-dashoffset:0;stroke-opacity:1"
     d="M 56.071691,242.63596 L 609.63052,242.63596"
     id="path2384" />
  <path
     style="opacity:1;fill:#000000;fill-opacity:1;stroke:none;stroke-width:1;stroke-linecap:round;stroke-linejoin:round;stroke-miterlimit:4;stroke-dasharray:none;stroke-dashoffset:0;stroke-opacity:1"
     d="M 602.1115,235.04366 L 602.1115,250.22826 L 627.20827,242.63596 L 602.1115,235.04366 z"
     id="path3156"
     sodipodi:nodetypes="cccc" />
  <path
     id="path3158"
     d="M 56.256969,243.96335 L 56.256969,38.167778"
     style="opacity:1;fill:none;fill-opacity:1;stroke:#000000;stroke-width:1;stroke-linecap:round;stroke-linejoin:round;stroke-miterlimit:4;stroke-dasharray:none;stroke-dashoffset:0;stroke-opacity:1" />
  <path
     sodipodi:nodetypes="cccc"
     id="path3160"
     d="M 48.664669,43.599285 L 63.849269,43.599285 L 56.256969,18.502515 L 48.664669,43.599285 z"
     style="opacity:1;fill:#000000;fill-opacity:1;stroke:none;stroke-width:1;stroke-linecap:round;stroke-linejoin:round;stroke-miterlimit:4;stroke-dasharray:none;stroke-dashoffset:0;stroke-opacity:1" />
  <path
     style="fill:none;fill-opacity:1;stroke:#000000;stroke-width:1;stroke-linecap:round;stroke-linejoin:round;stroke-miterlimit:4;stroke-dashoffset:0;stroke-opacity:1"
     d="M 56.256967,184.3478 C 88.432024,184.3478 114.54511,210.46089 114.54511,242.63595"
     id="path3164"
     sodipodi:nodetypes="cc" />
  <path
     sodipodi:nodetypes="cc"
     id="path3167"
     d="M 524.6251,202.31891 C 514.58952,212.79095 508.42056,226.99741 508.42056,242.63595"
     style="fill:none;fill-opacity:1;stroke:#000000;stroke-width:1;stroke-linecap:round;stroke-linejoin:round;stroke-miterlimit:4;stroke-dashoffset:0;stroke-opacity:1" />
  <path
     style="font-size:41.31052017px;font-style:italic;font-variant:normal;font-weight:normal;font-stretch:normal;fill:#000000;fill-opacity:1;stroke:none;stroke-width:1px;stroke-linecap:butt;stroke-linejoin:miter;stroke-opacity:1;font-family:Times New Roman;-inkscape-font-specification:Times New Roman Italic"
     d="M 306.09233,101.81628 L 308.3515,91.670187 L 309.03732,91.670187 C 308.94319,92.651859 308.89612,93.465428 308.89612,94.110897 C 308.89612,95.953201 309.48444,97.452588 310.6611,98.609064 C 311.83774,99.765545 313.37411,100.34378 315.27021,100.34378 C 317.03181,100.34378 318.36983,99.802525 319.28427,98.720005 C 320.19868,97.63749 320.65589,96.390242 320.6559,94.978256 C 320.65589,94.063838 320.44745,93.230098 320.0306,92.477034 C 319.39856,91.360906 317.7109,89.397583 314.96764,86.587057 C 313.63634,85.242329 312.78242,84.240497 312.4059,83.581555 C 311.78732,82.492332 311.47802,81.349301 311.47803,80.152459 C 311.47802,78.242947 312.19074,76.609085 313.61617,75.250869 C 315.04159,73.892706 316.87044,73.213611 319.10273,73.213583 C 319.85577,73.213611 320.56848,73.287572 321.24087,73.435466 C 321.65772,73.516178 322.4175,73.785126 323.52021,74.242312 C 324.30014,74.551629 324.73046,74.719722 324.81116,74.746591 C 324.99941,74.786959 325.20784,74.80713 325.43647,74.807104 C 325.82642,74.80713 326.16261,74.706275 326.44503,74.504537 C 326.7274,74.302852 327.05686,73.872535 327.43341,73.213583 L 328.19992,73.213583 L 326.10212,82.290602 L 325.4163,82.290602 C 325.47007,81.483775 325.49696,80.831575 325.49698,80.334 C 325.49696,78.706883 324.95906,77.375588 323.88329,76.340112 C 322.80748,75.304685 321.38877,74.786959 319.62718,74.786933 C 318.22863,74.786959 317.09232,75.197106 316.21825,76.017373 C 315.34416,76.837691 314.90712,77.785734 314.90713,78.861506 C 314.90712,79.802847 315.18615,80.700463 315.74423,81.554354 C 316.30229,82.408285 317.58652,83.800094 319.59692,85.729783 C 321.60729,87.659503 322.90833,89.165615 323.50004,90.248121 C 324.09171,91.33065 324.38755,92.483766 324.38757,93.707474 C 324.38755,95.092566 324.02111,96.433946 323.28824,97.731619 C 322.55534,99.029298 321.50308,100.03449 320.13145,100.74721 C 318.7598,101.45992 317.26042,101.81628 315.63329,101.81628 C 314.82643,101.81628 314.07338,101.74232 313.37412,101.59439 C 312.67485,101.44647 311.55871,101.08339 310.02571,100.50515 C 309.50125,100.30344 309.06421,100.20259 308.71458,100.20258 C 307.92118,100.20259 307.3026,100.74048 306.85884,101.81628 L 306.09233,101.81628 z"
     id="text3169" />
  <path
     style="font-size:41.31052017px;font-style:italic;font-variant:normal;font-weight:normal;font-stretch:normal;fill:#000000;fill-opacity:1;stroke:none;stroke-width:1px;stroke-linecap:butt;stroke-linejoin:miter;stroke-opacity:1;font-family:Times New Roman;-inkscape-font-specification:Times New Roman Italic"
     d="M 26.010736,152.43161 L 20.806579,156.64738 C 21.626865,156.49946 22.386644,156.42549 23.085919,156.4255 C 23.758281,156.42549 24.380224,156.46584 24.951751,156.54653 C 25.523255,156.62721 26.746971,156.87934 28.622901,157.30294 C 30.498801,157.72653 32.136025,157.93833 33.534576,157.93834 C 35.02722,157.93833 36.29464,157.67947 37.336838,157.16175 C 38.37899,156.64401 39.390909,155.78002 40.372597,154.56975 L 41.038245,154.89249 C 39.653133,156.88271 38.019272,158.31822 36.136655,159.19903 C 34.253994,160.07983 32.257051,160.52023 30.145823,160.52024 C 28.975881,160.52023 27.375637,160.29163 25.345088,159.83442 C 22.238722,159.1486 20.066964,158.80569 18.829806,158.80569 C 18.359141,158.80569 17.97589,158.83931 17.68005,158.90655 C 17.384203,158.97378 16.940438,159.13515 16.348754,159.39066 L 15.884818,158.84604 L 24.15499,152.31058 C 21.59997,151.96095 19.663541,150.83809 18.345698,148.942 C 17.027847,147.04592 16.368923,145.02208 16.368925,142.87048 C 16.368923,139.92551 17.259815,136.87967 19.041603,133.73295 C 20.823381,130.58627 23.102719,128.14893 25.879624,126.42091 C 28.656504,124.69294 31.382969,123.82894 34.059026,123.82892 C 36.049224,123.82894 37.746961,124.23237 39.152242,125.03919 C 40.557472,125.84606 41.643352,127.01935 42.409883,128.55905 C 43.176358,130.0988 43.559609,131.67551 43.559639,133.28919 C 43.559609,136.38211 42.678803,139.51536 40.917218,142.68894 C 39.155579,145.86254 36.967011,148.26627 34.351508,149.90013 C 31.735964,151.53399 28.95571,152.37782 26.010736,152.43161 L 26.010736,152.43161 z M 33.574918,125.11987 C 32.230157,125.1199 30.915671,125.45272 29.631458,126.11834 C 28.347214,126.78402 27.073071,127.87326 25.809025,129.38607 C 24.544955,130.89893 23.408648,132.87906 22.4001,135.32647 C 21.176376,138.33871 20.564518,141.18284 20.564525,143.85887 C 20.564518,145.76841 21.055349,147.45943 22.037019,148.93192 C 23.018673,150.40441 24.524784,151.14066 26.555357,151.14066 C 27.765613,151.14066 28.962433,150.83809 30.145823,150.23296 C 31.329179,149.62782 32.552895,148.59909 33.816972,147.14677 C 35.430643,145.29103 36.782109,142.93101 37.871374,140.06669 C 38.960591,137.20241 39.505212,134.53982 39.505237,132.07892 C 39.505212,130.26354 39.014381,128.64985 38.032743,127.23784 C 37.051057,125.82589 35.565117,125.1199 33.574918,125.11987 L 33.574918,125.11987 z"
     id="text3173" />
  <path
     style="font-size:41.31052017px;font-style:normal;font-variant:normal;font-weight:normal;font-stretch:normal;fill:#000000;fill-opacity:1;stroke:none;stroke-width:1px;stroke-linecap:butt;stroke-linejoin:miter;stroke-opacity:1;font-family:Times New Roman;-inkscape-font-specification:Times New Roman"
     d="M 23.856769,261.4556 C 23.856767,258.33582 24.327427,255.64969 25.268749,253.39723 C 26.210066,251.14481 27.460676,249.46724 29.020584,248.36453 C 30.230845,247.49047 31.481455,247.05343 32.772418,247.0534 C 34.870205,247.05343 36.752844,248.1225 38.420341,250.26061 C 40.504675,252.90978 41.54685,256.50024 41.546869,261.03201 C 41.54685,264.20561 41.089638,266.90182 40.175231,269.12064 C 39.260788,271.33947 38.094225,272.9498 36.675536,273.95163 C 35.256819,274.95347 33.888544,275.45438 32.570706,275.45438 C 29.961896,275.45438 27.790138,273.91465 26.055424,270.83519 C 24.589652,268.23984 23.856767,265.11332 23.856769,261.4556 L 23.856769,261.4556 z M 27.810314,261.95988 C 27.810309,265.72517 28.274245,268.79791 29.202124,271.1781 C 29.96862,273.18177 31.111651,274.1836 32.63122,274.1836 C 33.35737,274.1836 34.110426,273.8575 34.890389,273.2053 C 35.670327,272.5531 36.262013,271.4605 36.66545,269.92749 C 37.284017,267.61454 37.593308,264.35354 37.593323,260.14448 C 37.593308,257.02469 37.27057,254.42262 36.625108,252.33824 C 36.140987,250.79181 35.515682,249.69585 34.749191,249.05035 C 34.197834,248.60661 33.532187,248.38472 32.752247,248.3847 C 31.837812,248.38472 31.024243,248.79487 30.311537,249.61514 C 29.343315,250.7313 28.684391,252.48619 28.334764,254.87981 C 27.985126,257.27347 27.810309,259.63349 27.810314,261.95988 L 27.810314,261.95988 z"
     id="text3177" />
  <path
     style="font-size:41.31052017px;font-style:normal;font-variant:normal;font-weight:normal;font-stretch:normal;fill:#000000;fill-opacity:1;stroke:none;stroke-width:1px;stroke-linecap:butt;stroke-linejoin:miter;stroke-opacity:1;font-family:Times New Roman;-inkscape-font-specification:Times New Roman"
     d="M 108.90146,202.98642 L 108.90146,202.24009 C 110.64962,202.2132 112.27676,201.80641 113.78288,201.01974 C 115.28898,200.23306 116.74467,198.85806 118.14993,196.89474 C 119.55518,194.93142 120.53348,192.77311 121.08484,190.4198 C 118.97358,191.778 117.06404,192.45709 115.35623,192.45708 C 113.43324,192.45709 111.78593,191.71412 110.4143,190.22817 C 109.04266,188.74224 108.35684,186.76883 108.35684,184.30794 C 108.35684,181.91431 109.04266,179.7829 110.4143,177.91368 C 112.06833,175.64109 114.22664,174.50478 116.88924,174.50476 C 119.13495,174.50478 121.05793,175.43266 122.65819,177.28837 C 124.62149,179.58791 125.60316,182.42532 125.60318,185.8006 C 125.60316,188.83974 124.85682,191.67378 123.36418,194.30274 C 121.8715,196.93172 119.79387,199.11357 117.13129,200.84828 C 114.96625,202.27371 112.60622,202.98642 110.05122,202.98642 L 108.90146,202.98642 z M 121.40758,188.92713 C 121.64961,187.17898 121.77064,185.78045 121.77066,184.73153 C 121.77064,183.42715 121.54876,182.01853 121.10501,180.50567 C 120.66123,178.99286 120.03256,177.83302 119.21901,177.02615 C 118.40542,176.21933 117.48091,175.81591 116.44547,175.81588 C 115.24864,175.81591 114.19974,176.3538 113.29877,177.42957 C 112.39779,178.50539 111.9473,180.10563 111.94731,182.23031 C 111.9473,185.06773 112.54571,187.28656 113.74254,188.88679 C 114.61661,190.04328 115.69241,190.62152 116.96992,190.62151 C 117.58849,190.62152 118.32138,190.4736 119.16858,190.17774 C 120.01575,189.88191 120.76208,189.46504 121.40758,188.92713 L 121.40758,188.92713 z M 128.8709,188.90696 C 128.8709,185.78717 129.34156,183.10105 130.28288,180.84858 C 131.2242,178.59616 132.47481,176.9186 134.03472,175.81588 C 135.24498,174.94183 136.49559,174.50478 137.78655,174.50476 C 139.88434,174.50478 141.76698,175.57385 143.43447,177.71197 C 145.51881,180.36114 146.56098,183.9516 146.561,188.48336 C 146.56098,191.65697 146.10377,194.35318 145.18936,196.572 C 144.27492,198.79083 143.10836,200.40116 141.68967,201.40299 C 140.27095,202.40482 138.90268,202.90574 137.58484,202.90574 C 134.97603,202.90574 132.80427,201.36601 131.06956,198.28654 C 129.60379,195.6912 128.8709,192.56467 128.8709,188.90696 L 128.8709,188.90696 z M 132.82445,189.41124 C 132.82444,193.17653 133.28838,196.24926 134.21626,198.62945 C 134.98275,200.63312 136.12578,201.63496 137.64535,201.63496 C 138.3715,201.63496 139.12456,201.30886 139.90452,200.65666 C 140.68446,200.00446 141.27615,198.91185 141.67958,197.37884 C 142.29815,195.06589 142.60744,191.80489 142.60746,187.59583 C 142.60744,184.47605 142.2847,181.87397 141.63924,179.7896 C 141.15512,178.24317 140.52982,177.1472 139.76332,176.5017 C 139.21197,176.05796 138.54632,175.83608 137.76638,175.83605 C 136.85195,175.83608 136.03838,176.24622 135.32567,177.06649 C 134.35745,178.18265 133.69852,179.93754 133.3489,182.33116 C 132.99926,184.72482 132.82444,187.08485 132.82445,189.41124 L 132.82445,189.41124 z M 156.20281,174.46441 C 157.93752,174.46444 159.40665,175.06958 160.61021,176.27982 C 161.81374,177.49011 162.41551,178.95588 162.41553,180.67713 C 162.41551,182.38497 161.81038,183.84402 160.60012,185.05427 C 159.38984,186.26455 157.92408,186.86969 156.20281,186.86967 C 154.49498,186.86969 153.03594,186.26455 151.82567,185.05427 C 150.6154,183.84402 150.01027,182.38497 150.01027,180.67713 C 150.01027,178.95588 150.61204,177.49011 151.81559,176.27982 C 153.01913,175.06958 154.48154,174.46444 156.20281,174.46441 L 156.20281,174.46441 z M 156.20281,176.15879 C 154.9522,176.15882 153.88985,176.59586 153.01577,177.46992 C 152.14168,178.34402 151.70464,179.40637 151.70465,180.65696 C 151.70464,181.89414 152.14168,182.95313 153.01577,183.83391 C 153.88985,184.71474 154.9522,185.15514 156.20281,185.15512 C 157.43997,185.15514 158.49895,184.71474 159.37977,183.83391 C 160.26056,182.95313 160.70097,181.89414 160.70098,180.65696 C 160.70097,179.40637 160.26393,178.34402 159.38986,177.46992 C 158.51576,176.59586 157.45342,176.15882 156.20281,176.15879 L 156.20281,176.15879 z"
     id="text3181" />
  <path
     style="font-size:41.31052017px;font-style:italic;font-variant:normal;font-weight:normal;font-stretch:normal;fill:#000000;fill-opacity:1;stroke:none;stroke-width:1px;stroke-linecap:butt;stroke-linejoin:miter;stroke-opacity:1;font-family:Times New Roman;-inkscape-font-specification:Times New Roman Italic"
     d="M 297.0801,254.36688 L 307.8515,254.36688 C 310.67544,254.36691 312.78669,254.9754 314.18524,256.19237 C 315.58375,257.40939 316.28302,258.89197 316.28304,260.64011 C 316.28302,262.02521 315.83925,263.36996 314.95175,264.67434 C 314.06419,265.97876 312.74634,267.03774 310.9982,267.8513 C 309.25001,268.66488 307.36065,269.07166 305.33011,269.07165 C 304.06603,269.07166 302.45907,268.84306 300.5092,268.38583 L 298.33072,275.84916 C 297.81971,277.62422 297.56421,278.79415 297.56421,279.35894 C 297.56421,279.78926 297.74575,280.14562 298.10883,280.42801 C 298.47191,280.71041 299.33926,280.89195 300.71091,280.97263 L 300.5092,281.71896 L 289.63695,281.71896 L 289.85883,280.97263 C 291.28426,280.97263 292.27601,280.72722 292.83408,280.23638 C 293.39214,279.74555 293.99391,278.39073 294.6394,276.1719 L 299.15773,260.59977 C 299.69562,258.7306 299.96457,257.47999 299.96458,256.84793 C 299.96457,256.3773 299.77294,255.98732 299.3897,255.67801 C 299.00644,255.36874 298.16262,255.18048 296.85822,255.11321 L 297.0801,254.36688 z M 300.85211,267.11505 C 302.37166,267.50504 303.59537,267.70003 304.52326,267.70001 C 305.98901,267.70003 307.32367,267.39746 308.52723,266.79231 C 309.73076,266.18719 310.67208,265.27949 311.35119,264.06921 C 312.03027,262.85895 312.36982,261.60162 312.36984,260.2972 C 312.36982,258.93903 311.95295,257.86324 311.11923,257.06982 C 310.28547,256.27644 309.02141,255.87974 307.32705,255.87972 C 306.41261,255.87974 305.3032,255.99405 303.99881,256.22263 L 300.85211,267.11505 z"
     id="text3185" />
  <path
     style="font-size:41.31052017px;font-style:italic;font-variant:normal;font-weight:normal;font-stretch:normal;fill:#000000;fill-opacity:1;stroke:none;stroke-width:1px;stroke-linecap:butt;stroke-linejoin:miter;stroke-opacity:1;font-family:Times New Roman;-inkscape-font-specification:Times New Roman Italic"
     d="M 477.41521,232.19278 L 475.35775,232.19278 L 477.79846,223.84193 C 475.84858,223.82848 474.33911,223.24015 473.27004,222.07695 C 472.20097,220.91375 471.66643,219.31687 471.66643,217.2863 C 471.66643,214.1934 472.62792,211.40978 474.55091,208.93544 C 476.47388,206.46113 478.87425,205.18363 481.75201,205.10293 L 481.53013,205.82909 C 479.72816,206.12495 478.15817,207.59744 476.82016,210.24657 C 475.48214,212.89572 474.81313,215.49108 474.81313,218.03263 C 474.81313,221.09865 475.90237,222.67872 478.08086,222.77286 L 480.80396,213.75635 C 481.48977,211.42996 482.10835,209.6986 482.65971,208.56228 C 483.21104,207.42599 483.89014,206.56535 484.697,205.98037 C 485.50383,205.39543 486.36446,205.10294 487.2789,205.10293 C 488.56984,205.10294 489.57167,205.65093 490.28441,206.74687 C 490.9971,207.84286 491.35346,209.29182 491.35348,211.09376 C 491.35346,214.34805 490.34826,217.25605 488.33789,219.81778 C 486.32748,222.37952 483.47327,223.72762 479.77524,223.8621 L 477.41521,232.19278 z M 480.13832,222.75268 C 482.82779,222.57787 484.90542,221.1827 486.3712,218.56717 C 487.83696,215.95165 488.56984,213.27898 488.56986,210.54914 C 488.56984,208.22275 487.97815,207.05954 486.7948,207.05953 C 486.08207,207.05954 485.44331,207.48986 484.87854,208.35048 C 484.31373,209.21113 483.58085,211.16773 482.67988,214.22029 L 480.13832,222.75268 z"
     id="text3209" />
  <path
     id="path3213"
     style="opacity:1;fill:none;fill-opacity:1;stroke:#000000;stroke-width:1;stroke-linecap:round;stroke-linejoin:round;stroke-miterlimit:4;stroke-dasharray:none;stroke-dashoffset:0;stroke-opacity:1"
     d="M 627.20827,242.63596 L 56.256969,18.502515"
     sodipodi:nodetypes="cc" />
</svg>
